<?xml version="1.0" encoding="UTF-8"?>
<svg xmlns="http://www.w3.org/2000/svg" xmlns:xlink="http://www.w3.org/1999/xlink" width="450pt" height="374.999991pt" viewBox="0 0 450 374.999991" version="1.2">
<defs>
<clipPath id="clip1">
  <path d="M 5.621094 309 L 444.371094 309 L 444.371094 337.5 L 5.621094 337.5 Z M 5.621094 309 "/>
</clipPath>
<clipPath id="clip2">
  <path d="M 41 37.5 L 401 37.5 L 401 308 L 41 308 Z M 41 37.5 "/>
</clipPath>
</defs>
<g id="surface1">
<g clip-path="url(#clip1)" clip-rule="nonzero">
<path style=" stroke:none;fill-rule:nonzero;fill:rgb(100%,100%,100%);fill-opacity:1;" d="M 28.773438 315.917969 C 18.367188 315.917969 11.726562 320.070312 11.726562 322.929688 L 11.726562 324.484375 C 11.726562 327.34375 18.367188 331.5 28.773438 331.5 L 421.148438 331.5 C 431.554688 331.5 438.195312 327.34375 438.195312 324.484375 L 438.195312 322.929688 C 438.195312 320.070312 431.554688 315.917969 421.148438 315.917969 Z M 421.148438 337.542969 L 28.773438 337.542969 C 15.609375 337.542969 5.683594 331.929688 5.683594 324.484375 L 5.683594 322.929688 C 5.683594 315.488281 15.609375 309.875 28.773438 309.875 L 421.148438 309.875 C 434.3125 309.875 444.238281 315.488281 444.238281 322.929688 L 444.238281 324.484375 C 444.238281 331.929688 434.3125 337.542969 421.148438 337.542969 "/>
</g>
<path style=" stroke:none;fill-rule:nonzero;fill:rgb(100%,100%,100%);fill-opacity:1;" d="M 268.820312 323.707031 C 268.820312 325.5625 267.625 327.0625 266.15625 327.0625 L 173.511719 327.0625 C 172.039062 327.0625 170.851562 325.5625 170.851562 323.707031 C 170.851562 321.855469 172.039062 320.351562 173.511719 320.351562 L 266.15625 320.351562 C 267.625 320.351562 268.820312 321.855469 268.820312 323.707031 "/>
<path style=" stroke:none;fill-rule:nonzero;fill:rgb(100%,100%,100%);fill-opacity:1;" d="M 22.535156 313.398438 L 62.40625 304.203125 L 383.925781 304.203125 L 427.414062 313.398438 L 22.535156 313.398438 "/>
<g clip-path="url(#clip2)" clip-rule="nonzero">
<path style=" stroke:none;fill-rule:nonzero;fill:rgb(100%,100%,100%);fill-opacity:1;" d="M 390.757812 279.734375 L 50.511719 279.734375 L 50.511719 57.710938 L 390.757812 57.710938 Z M 221.914062 42.890625 L 227.347656 42.890625 C 230.464844 42.890625 232.992188 45.417969 232.992188 48.535156 C 232.992188 51.652344 230.464844 54.179688 227.347656 54.179688 L 221.914062 54.179688 C 218.792969 54.179688 216.265625 51.652344 216.265625 48.535156 C 216.265625 45.417969 218.792969 42.890625 221.914062 42.890625 Z M 382.742188 37.527344 L 59.976562 37.527344 C 49.972656 37.527344 41.867188 46.515625 41.867188 57.597656 L 41.867188 287.058594 C 41.867188 298.144531 49.972656 307.128906 59.976562 307.128906 L 382.742188 307.128906 C 392.742188 307.128906 400.851562 298.144531 400.851562 287.058594 L 400.851562 57.597656 C 400.851562 46.515625 392.742188 37.527344 382.742188 37.527344 "/>
</g>
<path style=" stroke:none;fill-rule:nonzero;fill:rgb(100%,100%,100%);fill-opacity:1;" d="M 228.890625 48.796875 C 228.890625 50.382812 227.601562 51.671875 226.011719 51.671875 L 223.246094 51.671875 C 221.660156 51.671875 220.371094 50.382812 220.371094 48.796875 C 220.371094 47.207031 221.660156 45.921875 223.246094 45.921875 L 226.011719 45.921875 C 227.601562 45.921875 228.890625 47.207031 228.890625 48.796875 "/>
<path style=" stroke:none;fill-rule:evenodd;fill:rgb(0%,30.198669%,25.099182%);fill-opacity:1;" d="M 175 152.589844 L 175 192.109375 C 170.796875 192.902344 168.589844 193.214844 165.242188 193.214844 C 155.21875 193.207031 150 188.730469 150 180.140625 C 150 171.863281 155.535156 166.492188 164.113281 166.492188 C 165.445312 166.492188 166.457031 166.59375 167.683594 166.910156 L 167.683594 152.589844 Z M 167.683594 173.441406 C 166.722656 173.128906 165.929688 173.023438 164.914062 173.023438 C 160.765625 173.023438 158.367188 175.550781 158.367188 179.984375 C 158.367188 184.300781 160.660156 186.683594 164.863281 186.683594 C 165.773438 186.683594 166.507812 186.632812 167.683594 186.472656 Z M 167.683594 173.441406 "/>
<path style=" stroke:none;fill-rule:evenodd;fill:rgb(0%,30.198669%,25.099182%);fill-opacity:1;" d="M 187.5 165.234375 L 187.5 185.917969 C 187.5 192.402344 187.015625 195.992188 185.585938 198.679688 C 184.257812 201.261719 182.503906 202.894531 178.882812 204.695312 L 171.265625 201.105469 C 174.886719 199.417969 176.644531 197.933594 177.761719 195.660156 C 178.933594 193.339844 179.304688 190.179688 179.304688 183.105469 L 179.304688 165.230469 L 187.5 165.230469 Z M 187.5 165.234375 "/>
<path style=" stroke:none;fill-rule:evenodd;fill:rgb(0%,30.198669%,25.099182%);fill-opacity:1;" d="M 192.917969 167.828125 C 196.46875 166.105469 199.867188 165.34375 203.570312 165.34375 C 207.695312 165.34375 210.410156 166.480469 211.609375 168.699219 C 212.28125 169.9375 212.5 171.554688 212.5 175.011719 L 212.5 191.910156 C 208.898438 192.445312 204.355469 192.828125 201.023438 192.828125 C 194.285156 192.828125 191.261719 190.398438 191.261719 185 C 191.261719 179.164062 195.277344 176.464844 205.140625 175.605469 L 205.140625 173.777344 C 205.140625 172.269531 204.40625 171.722656 202.378906 171.722656 C 199.410156 171.722656 196.066406 172.589844 192.929688 174.261719 Z M 205.503906 181.050781 C 200.183594 181.585938 198.457031 182.453125 198.457031 184.617188 C 198.457031 186.234375 199.449219 186.996094 201.644531 186.996094 C 202.84375 186.996094 203.941406 186.886719 205.503906 186.621094 Z M 205.503906 181.050781 "/>
<path style=" stroke:none;fill-rule:evenodd;fill:rgb(0%,30.198669%,25.099182%);fill-opacity:1;" d="M 216.929688 167.257812 C 221.679688 165.941406 225.59375 165.339844 229.558594 165.339844 C 233.679688 165.339844 236.664062 166.332031 238.429688 168.246094 C 240.09375 170.054688 240.625 172.035156 240.625 176.257812 L 240.625 192.828125 L 232.582031 192.828125 L 232.582031 176.59375 C 232.582031 173.351562 231.535156 172.144531 228.667969 172.144531 C 227.570312 172.144531 226.578125 172.253906 224.960938 172.753906 L 224.960938 192.832031 L 216.929688 192.832031 Z M 216.929688 167.257812 "/>
<path style=" stroke:none;fill-rule:evenodd;fill:rgb(0%,30.198669%,25.099182%);fill-opacity:1;" d="M 244.304688 196.359375 C 247.175781 197.878906 250.050781 198.578125 253.089844 198.578125 C 258.46875 198.578125 260.757812 197.101562 260.757812 191.777344 L 260.757812 191.617188 C 259.164062 192.421875 257.554688 192.761719 255.433594 192.761719 C 248.242188 192.761719 243.75 187.925781 243.75 180.269531 C 243.75 170.761719 250.441406 165.386719 262.417969 165.386719 C 265.9375 165.386719 269.191406 165.765625 273.128906 166.585938 L 270.320312 172.617188 C 268.132812 172.183594 270.140625 172.550781 268.492188 172.390625 L 268.492188 173.261719 L 268.601562 176.792969 L 268.652344 181.359375 C 268.707031 182.503906 268.707031 183.640625 268.757812 184.785156 L 268.757812 187.066406 C 268.757812 194.238281 268.164062 196.851562 266.414062 199.628906 C 263.855469 203.699219 259.429688 205.714844 253.144531 205.714844 C 249.945312 205.714844 247.175781 205.230469 244.304688 204.085938 Z M 260.601562 172.125 L 259.742188 172.125 C 258.148438 172.074219 256.277344 172.503906 254.996094 173.324219 C 253.035156 174.464844 252.019531 176.53125 252.019531 179.460938 C 252.019531 183.636719 254.046875 186.027344 257.667969 186.027344 C 258.789062 186.027344 259.695312 185.8125 260.753906 185.492188 L 260.753906 182.605469 C 260.753906 181.625 260.699219 180.539062 260.699219 179.398438 L 260.648438 175.542969 L 260.59375 172.773438 L 260.59375 172.125 Z M 260.601562 172.125 "/>
<path style=" stroke:none;fill-rule:evenodd;fill:rgb(0%,30.198669%,25.099182%);fill-opacity:1;" d="M 286.144531 165.234375 C 294.746094 165.234375 300 170.421875 300 178.824219 C 300 187.433594 294.523438 192.832031 285.800781 192.832031 C 277.1875 192.832031 271.875 187.648438 271.875 179.300781 C 271.890625 170.636719 277.367188 165.234375 286.144531 165.234375 Z M 285.964844 186.191406 C 289.269531 186.191406 291.21875 183.574219 291.21875 179.023438 C 291.21875 174.527344 289.320312 171.855469 286.023438 171.855469 C 282.605469 171.855469 280.652344 174.472656 280.652344 179.023438 C 280.65625 183.574219 282.617188 186.191406 285.964844 186.191406 Z M 285.964844 186.191406 "/>
</g>
</svg>
