<?xml version="1.0" encoding="UTF-8"?>
<svg xmlns="http://www.w3.org/2000/svg" xmlns:xlink="http://www.w3.org/1999/xlink" width="450pt" height="374.999991pt" viewBox="0 0 450 374.999991" version="1.2">
<defs>
<clipPath id="clip1">
  <path d="M 5.621094 309 L 444.371094 309 L 444.371094 337.5 L 5.621094 337.5 Z M 5.621094 309 "/>
</clipPath>
<clipPath id="clip2">
  <path d="M 41 37.5 L 401 37.5 L 401 308 L 41 308 Z M 41 37.5 "/>
</clipPath>
<clipPath id="clip3">
  <path d="M 72.253906 155 L 94 155 L 94 189 L 72.253906 189 Z M 72.253906 155 "/>
</clipPath>
<clipPath id="clip4">
  <path d="M 174 165 L 197.503906 165 L 197.503906 189 L 174 189 Z M 174 165 "/>
</clipPath>
<clipPath id="clip5">
  <path d="M 215.550781 159.566406 L 247.800781 159.566406 L 247.800781 191.816406 L 215.550781 191.816406 Z M 215.550781 159.566406 "/>
</clipPath>
<clipPath id="clip6">
  <path d="M 268.453125 144.453125 L 339.703125 144.453125 L 339.703125 193 L 268.453125 193 Z M 268.453125 144.453125 "/>
</clipPath>
<clipPath id="clip7">
  <path d="M 318 197 L 329 197 L 329 207.453125 L 318 207.453125 Z M 318 197 "/>
</clipPath>
<clipPath id="clip8">
  <path d="M 291 197 L 301 197 L 301 207.453125 L 291 207.453125 Z M 291 197 "/>
</clipPath>
</defs>
<g id="surface1">
<g clip-path="url(#clip1)" clip-rule="nonzero">
<path style=" stroke:none;fill-rule:nonzero;fill:rgb(100%,100%,100%);fill-opacity:1;" d="M 28.773438 315.917969 C 18.367188 315.917969 11.726562 320.070312 11.726562 322.929688 L 11.726562 324.484375 C 11.726562 327.34375 18.367188 331.5 28.773438 331.5 L 421.148438 331.5 C 431.554688 331.5 438.195312 327.34375 438.195312 324.484375 L 438.195312 322.929688 C 438.195312 320.070312 431.554688 315.917969 421.148438 315.917969 Z M 421.148438 337.542969 L 28.773438 337.542969 C 15.609375 337.542969 5.683594 331.929688 5.683594 324.484375 L 5.683594 322.929688 C 5.683594 315.488281 15.609375 309.875 28.773438 309.875 L 421.148438 309.875 C 434.3125 309.875 444.238281 315.488281 444.238281 322.929688 L 444.238281 324.484375 C 444.238281 331.929688 434.3125 337.542969 421.148438 337.542969 "/>
</g>
<path style=" stroke:none;fill-rule:nonzero;fill:rgb(100%,100%,100%);fill-opacity:1;" d="M 268.820312 323.707031 C 268.820312 325.5625 267.625 327.0625 266.15625 327.0625 L 173.511719 327.0625 C 172.039062 327.0625 170.851562 325.5625 170.851562 323.707031 C 170.851562 321.855469 172.039062 320.351562 173.511719 320.351562 L 266.15625 320.351562 C 267.625 320.351562 268.820312 321.855469 268.820312 323.707031 "/>
<path style=" stroke:none;fill-rule:nonzero;fill:rgb(100%,100%,100%);fill-opacity:1;" d="M 22.535156 313.398438 L 62.40625 304.203125 L 383.925781 304.203125 L 427.414062 313.398438 L 22.535156 313.398438 "/>
<g clip-path="url(#clip2)" clip-rule="nonzero">
<path style=" stroke:none;fill-rule:nonzero;fill:rgb(100%,100%,100%);fill-opacity:1;" d="M 390.757812 279.734375 L 50.511719 279.734375 L 50.511719 57.710938 L 390.757812 57.710938 Z M 221.914062 42.890625 L 227.347656 42.890625 C 230.464844 42.890625 232.992188 45.417969 232.992188 48.535156 C 232.992188 51.652344 230.464844 54.179688 227.347656 54.179688 L 221.914062 54.179688 C 218.792969 54.179688 216.265625 51.652344 216.265625 48.535156 C 216.265625 45.417969 218.792969 42.890625 221.914062 42.890625 Z M 382.742188 37.527344 L 59.976562 37.527344 C 49.972656 37.527344 41.867188 46.515625 41.867188 57.597656 L 41.867188 287.058594 C 41.867188 298.144531 49.972656 307.128906 59.976562 307.128906 L 382.742188 307.128906 C 392.742188 307.128906 400.851562 298.144531 400.851562 287.058594 L 400.851562 57.597656 C 400.851562 46.515625 392.742188 37.527344 382.742188 37.527344 "/>
</g>
<path style=" stroke:none;fill-rule:nonzero;fill:rgb(100%,100%,100%);fill-opacity:1;" d="M 228.890625 48.796875 C 228.890625 50.382812 227.601562 51.671875 226.011719 51.671875 L 223.246094 51.671875 C 221.660156 51.671875 220.371094 50.382812 220.371094 48.796875 C 220.371094 47.207031 221.660156 45.921875 223.246094 45.921875 L 226.011719 45.921875 C 227.601562 45.921875 228.890625 47.207031 228.890625 48.796875 "/>
<g clip-path="url(#clip3)" clip-rule="nonzero">
<path style=" stroke:none;fill-rule:evenodd;fill:rgb(0%,30.198669%,25.099182%);fill-opacity:1;" d="M 93.132812 155.019531 L 93.132812 188.023438 C 89.625 188.6875 87.78125 188.949219 84.984375 188.949219 C 76.613281 188.941406 72.253906 185.203125 72.253906 178.027344 C 72.253906 171.113281 76.875 166.628906 84.039062 166.628906 C 85.152344 166.628906 86 166.714844 87.023438 166.976562 L 87.023438 155.019531 Z M 87.023438 172.433594 C 86.21875 172.171875 85.558594 172.082031 84.710938 172.082031 C 81.246094 172.082031 79.242188 174.195312 79.242188 177.898438 C 79.242188 181.503906 81.15625 183.492188 84.667969 183.492188 C 85.425781 183.492188 86.042969 183.449219 87.023438 183.316406 Z M 87.023438 172.433594 "/>
</g>
<path style=" stroke:none;fill-rule:evenodd;fill:rgb(0%,30.198669%,25.099182%);fill-opacity:1;" d="M 103.574219 165.578125 L 103.574219 182.851562 C 103.574219 188.269531 103.167969 191.265625 101.976562 193.511719 C 100.863281 195.667969 99.398438 197.03125 96.375 198.535156 L 90.015625 195.535156 C 93.039062 194.128906 94.507812 192.886719 95.441406 190.988281 C 96.417969 189.050781 96.730469 186.410156 96.730469 180.503906 L 96.730469 165.574219 L 103.574219 165.574219 Z M 103.574219 165.578125 "/>
<path style=" stroke:none;fill-rule:evenodd;fill:rgb(0%,30.198669%,25.099182%);fill-opacity:1;" d="M 108.097656 167.746094 C 111.0625 166.304688 113.902344 165.671875 116.992188 165.671875 C 120.441406 165.671875 122.707031 166.617188 123.707031 168.472656 C 124.269531 169.507812 124.453125 170.855469 124.453125 173.746094 L 124.453125 187.855469 C 121.445312 188.304688 117.652344 188.625 114.867188 188.625 C 109.238281 188.625 106.714844 186.59375 106.714844 182.085938 C 106.714844 177.210938 110.070312 174.960938 118.304688 174.242188 L 118.304688 172.714844 C 118.304688 171.453125 117.691406 170.996094 116 170.996094 C 113.519531 170.996094 110.726562 171.722656 108.105469 173.117188 Z M 118.609375 178.789062 C 114.167969 179.234375 112.722656 179.960938 112.722656 181.765625 C 112.722656 183.117188 113.554688 183.753906 115.386719 183.753906 C 116.386719 183.753906 117.304688 183.664062 118.609375 183.4375 Z M 118.609375 178.789062 "/>
<path style=" stroke:none;fill-rule:evenodd;fill:rgb(0%,30.198669%,25.099182%);fill-opacity:1;" d="M 128.152344 167.269531 C 132.121094 166.167969 135.386719 165.667969 138.699219 165.667969 C 142.140625 165.667969 144.632812 166.496094 146.109375 168.09375 C 147.496094 169.605469 147.941406 171.257812 147.941406 174.785156 L 147.941406 188.625 L 141.222656 188.625 L 141.222656 175.066406 C 141.222656 172.355469 140.347656 171.351562 137.957031 171.351562 C 137.039062 171.351562 136.210938 171.441406 134.859375 171.859375 L 134.859375 188.628906 L 128.152344 188.628906 Z M 128.152344 167.269531 "/>
<path style=" stroke:none;fill-rule:evenodd;fill:rgb(0%,30.198669%,25.099182%);fill-opacity:1;" d="M 151.011719 191.574219 C 153.410156 192.84375 155.8125 193.425781 158.351562 193.425781 C 162.84375 193.425781 164.757812 192.191406 164.757812 187.746094 L 164.757812 187.613281 C 163.425781 188.285156 162.082031 188.566406 160.308594 188.566406 C 154.300781 188.566406 150.550781 184.53125 150.550781 178.136719 C 150.550781 170.195312 156.136719 165.707031 166.140625 165.707031 C 169.082031 165.707031 171.796875 166.023438 175.085938 166.707031 L 172.738281 171.742188 C 170.914062 171.382812 172.589844 171.6875 171.214844 171.554688 L 171.214844 172.285156 L 171.304688 175.234375 L 171.347656 179.046875 C 171.394531 180 171.394531 180.953125 171.4375 181.90625 L 171.4375 183.8125 C 171.4375 189.800781 170.941406 191.984375 169.476562 194.304688 C 167.34375 197.703125 163.648438 199.386719 158.394531 199.386719 C 155.722656 199.386719 153.410156 198.980469 151.011719 198.023438 Z M 164.625 171.335938 L 163.90625 171.335938 C 162.574219 171.289062 161.015625 171.648438 159.945312 172.332031 C 158.304688 173.285156 157.457031 175.015625 157.457031 177.460938 C 157.457031 180.949219 159.148438 182.945312 162.175781 182.945312 C 163.109375 182.945312 163.867188 182.765625 164.75 182.496094 L 164.75 180.085938 C 164.75 179.269531 164.707031 178.359375 164.707031 177.40625 L 164.664062 174.1875 L 164.617188 171.875 L 164.617188 171.335938 Z M 164.625 171.335938 "/>
<g clip-path="url(#clip4)" clip-rule="nonzero">
<path style=" stroke:none;fill-rule:evenodd;fill:rgb(0%,30.198669%,25.099182%);fill-opacity:1;" d="M 185.957031 165.578125 C 193.140625 165.578125 197.527344 169.910156 197.527344 176.925781 C 197.527344 184.121094 192.957031 188.628906 185.667969 188.628906 C 178.476562 188.628906 174.039062 184.296875 174.039062 177.328125 C 174.050781 170.089844 178.625 165.578125 185.957031 165.578125 Z M 185.808594 183.082031 C 188.566406 183.082031 190.195312 180.894531 190.195312 177.09375 C 190.195312 173.339844 188.609375 171.105469 185.855469 171.105469 C 183 171.105469 181.371094 173.292969 181.371094 177.09375 C 181.375 180.894531 183.011719 183.082031 185.808594 183.082031 Z M 185.808594 183.082031 "/>
</g>
<g clip-path="url(#clip5)" clip-rule="nonzero">
<path style=" stroke:none;fill-rule:nonzero;fill:rgb(100%,100%,100%);fill-opacity:1;" d="M 231.664062 159.566406 C 231.671875 159.566406 231.679688 159.566406 231.6875 159.566406 C 232.488281 159.570312 233.21875 159.898438 233.746094 160.425781 C 234.277344 160.957031 234.605469 161.691406 234.605469 162.5 L 234.605469 172.757812 L 244.867188 172.757812 C 245.675781 172.757812 246.40625 173.089844 246.9375 173.621094 C 247.46875 174.148438 247.796875 174.878906 247.800781 175.679688 C 247.800781 175.6875 247.800781 175.695312 247.800781 175.707031 C 247.796875 176.507812 247.46875 177.234375 246.9375 177.761719 C 246.410156 178.292969 245.675781 178.621094 244.867188 178.621094 L 244.867188 178.625 L 234.605469 178.625 L 234.605469 188.882812 C 234.605469 189.691406 234.277344 190.425781 233.746094 190.957031 C 233.21875 191.484375 232.488281 191.8125 231.6875 191.816406 C 231.675781 191.816406 231.667969 191.816406 231.660156 191.816406 C 230.859375 191.8125 230.132812 191.484375 229.605469 190.957031 C 229.074219 190.425781 228.746094 189.691406 228.746094 188.882812 L 228.742188 188.882812 L 228.742188 178.625 L 218.480469 178.625 C 217.675781 178.625 216.941406 178.292969 216.410156 177.761719 C 215.882812 177.234375 215.554688 176.503906 215.550781 175.703125 C 215.550781 175.695312 215.550781 175.6875 215.550781 175.675781 C 215.554688 174.875 215.882812 174.148438 216.410156 173.621094 C 216.941406 173.089844 217.675781 172.761719 218.480469 172.761719 L 218.480469 172.757812 L 228.742188 172.757812 L 228.742188 162.5 C 228.742188 161.691406 229.074219 160.957031 229.605469 160.425781 C 230.132812 159.898438 230.859375 159.570312 231.664062 159.566406 "/>
</g>
<g clip-path="url(#clip6)" clip-rule="nonzero">
<path style=" stroke:none;fill-rule:nonzero;fill:rgb(100%,100%,100%);fill-opacity:1;" d="M 333.496094 155.324219 L 285.507812 155.324219 C 283.847656 147.503906 279.308594 147.003906 278.921875 146.949219 L 275.433594 146.949219 C 274.878906 145.621094 273.605469 144.453125 272.058594 144.453125 C 270.0625 144.453125 268.460938 146.0625 268.460938 148.058594 C 268.460938 150.054688 270.0625 151.71875 272.058594 151.71875 C 273.605469 151.71875 274.878906 150.5 275.433594 149.167969 L 278.699219 149.167969 C 278.808594 149.167969 281.855469 150.113281 283.015625 156.488281 C 284.511719 164.972656 288.386719 186.269531 288.386719 186.269531 C 288.386719 188.65625 289.824219 192.980469 295.136719 192.980469 L 315.617188 192.980469 L 314.785156 190.816406 L 295.082031 190.816406 C 292.8125 190.816406 291.816406 189.152344 291.375 187.988281 C 294.972656 187.765625 304.824219 187.101562 313.515625 186.492188 L 313.570312 186.492188 L 309.472656 173.183594 C 309.085938 171.90625 309.472656 170.519531 310.46875 169.632812 C 311.464844 168.746094 313.015625 168.578125 314.179688 169.1875 L 333.773438 179.117188 C 334.492188 179.449219 334.988281 180.058594 335.320312 180.78125 L 336.59375 180.445312 C 337.039062 179.503906 337.148438 178.839844 337.148438 178.726562 L 339.195312 161.980469 C 339.695312 158.265625 337.148438 155.324219 333.496094 155.324219 Z M 303.328125 167.636719 C 303.441406 167.359375 303.773438 167.191406 304.050781 167.304688 L 307.867188 168.691406 C 308.144531 168.800781 308.3125 169.132812 308.199219 169.410156 C 308.089844 169.632812 307.867188 169.800781 307.648438 169.800781 C 307.589844 169.800781 307.535156 169.800781 307.425781 169.742188 L 303.605469 168.355469 C 303.386719 168.246094 303.21875 167.914062 303.328125 167.636719 Z M 307.371094 174.125 L 303.71875 175.84375 C 303.660156 175.898438 303.550781 175.898438 303.496094 175.898438 C 303.273438 175.898438 303.054688 175.789062 302.996094 175.566406 C 302.886719 175.289062 302.996094 174.957031 303.273438 174.789062 L 306.925781 173.070312 C 307.203125 172.960938 307.535156 173.070312 307.703125 173.347656 C 307.8125 173.625 307.703125 174.015625 307.371094 174.125 Z M 310.027344 176.507812 C 310.304688 176.621094 310.46875 176.953125 310.359375 177.230469 L 308.976562 181.113281 C 308.863281 181.335938 308.699219 181.5 308.421875 181.5 C 308.367188 181.5 308.3125 181.5 308.253906 181.445312 C 307.980469 181.335938 307.8125 181 307.921875 180.722656 L 309.308594 176.84375 C 309.417969 176.566406 309.75 176.398438 310.027344 176.507812 Z M 311.355469 167.027344 C 311.300781 167.082031 311.1875 167.082031 311.132812 167.082031 C 310.914062 167.082031 310.691406 166.96875 310.636719 166.75 L 308.863281 163.03125 C 308.753906 162.753906 308.863281 162.421875 309.140625 162.257812 C 309.417969 162.144531 309.75 162.257812 309.917969 162.535156 L 311.632812 166.25 C 311.742188 166.527344 311.632812 166.859375 311.355469 167.027344 Z M 317.332031 163.367188 L 315.949219 167.246094 C 315.839844 167.46875 315.671875 167.636719 315.394531 167.636719 C 315.339844 167.636719 315.285156 167.636719 315.175781 167.582031 C 314.898438 167.46875 314.730469 167.136719 314.84375 166.859375 L 316.226562 162.976562 C 316.335938 162.699219 316.667969 162.535156 316.945312 162.644531 C 317.332031 162.699219 317.445312 163.03125 317.332031 163.367188 Z M 322.757812 169.023438 L 319.105469 170.742188 C 318.992188 170.796875 318.9375 170.796875 318.828125 170.796875 C 318.605469 170.796875 318.382812 170.6875 318.328125 170.464844 C 318.21875 170.1875 318.328125 169.855469 318.605469 169.6875 L 322.257812 167.96875 C 322.535156 167.859375 322.867188 167.96875 323.035156 168.246094 C 323.199219 168.523438 323.035156 168.855469 322.757812 169.023438 Z M 322.757812 169.023438 "/>
</g>
<path style=" stroke:none;fill-rule:nonzero;fill:rgb(100%,100%,100%);fill-opacity:1;" d="M 328.070312 184.9375 L 332.71875 183.109375 C 333.164062 182.941406 333.441406 182.554688 333.441406 182.109375 C 333.441406 181.667969 333.21875 181.222656 332.832031 181 L 313.238281 171.074219 C 312.851562 170.851562 312.351562 170.90625 311.964844 171.242188 C 311.632812 171.519531 311.464844 172.015625 311.632812 172.460938 L 318.273438 193.921875 C 318.382812 194.367188 318.773438 194.699219 319.269531 194.753906 C 319.714844 194.808594 320.15625 194.53125 320.378906 194.144531 L 323.035156 189.042969 L 328.734375 196.640625 C 328.902344 196.863281 329.179688 197.027344 329.511719 197.085938 C 329.566406 197.085938 329.621094 197.085938 329.675781 197.085938 C 329.898438 197.085938 330.175781 197.027344 330.394531 196.863281 L 333.882812 194.144531 C 334.105469 193.980469 334.269531 193.703125 334.324219 193.367188 C 334.378906 193.035156 334.269531 192.757812 334.105469 192.480469 Z M 328.070312 184.9375 "/>
<g clip-path="url(#clip7)" clip-rule="nonzero">
<path style=" stroke:none;fill-rule:nonzero;fill:rgb(100%,100%,100%);fill-opacity:1;" d="M 323.367188 197.804688 C 320.765625 197.804688 318.605469 199.96875 318.605469 202.628906 C 318.605469 205.292969 320.765625 207.453125 323.367188 207.453125 C 325.96875 207.453125 328.125 205.292969 328.125 202.628906 C 328.125 199.96875 325.96875 197.804688 323.367188 197.804688 Z M 323.367188 197.804688 "/>
</g>
<g clip-path="url(#clip8)" clip-rule="nonzero">
<path style=" stroke:none;fill-rule:nonzero;fill:rgb(100%,100%,100%);fill-opacity:1;" d="M 295.96875 197.804688 C 293.367188 197.804688 291.207031 199.96875 291.207031 202.628906 C 291.207031 205.292969 293.367188 207.453125 295.96875 207.453125 C 298.570312 207.453125 300.726562 205.292969 300.726562 202.628906 C 300.726562 199.96875 298.570312 197.804688 295.96875 197.804688 Z M 295.96875 197.804688 "/>
</g>
</g>
</svg>
