<?xml version="1.0" encoding="UTF-8"?>
<svg xmlns="http://www.w3.org/2000/svg" xmlns:xlink="http://www.w3.org/1999/xlink" width="450pt" height="374.999991pt" viewBox="0 0 450 374.999991" version="1.2">
<defs>
<clipPath id="clip1">
  <path d="M 5.621094 309 L 444.371094 309 L 444.371094 337.5 L 5.621094 337.5 Z M 5.621094 309 "/>
</clipPath>
<clipPath id="clip2">
  <path d="M 41 37.5 L 401 37.5 L 401 308 L 41 308 Z M 41 37.5 "/>
</clipPath>
<clipPath id="clip3">
  <path d="M 72.253906 155 L 94 155 L 94 189 L 72.253906 189 Z M 72.253906 155 "/>
</clipPath>
<clipPath id="clip4">
  <path d="M 174 165 L 197.503906 165 L 197.503906 189 L 174 189 Z M 174 165 "/>
</clipPath>
<clipPath id="clip5">
  <path d="M 215.550781 159.566406 L 247.441406 159.566406 L 247.441406 191.457031 L 215.550781 191.457031 Z M 215.550781 159.566406 "/>
</clipPath>
<clipPath id="clip6">
  <path d="M 268.453125 144.453125 L 339.703125 144.453125 L 339.703125 194 L 268.453125 194 Z M 268.453125 144.453125 "/>
</clipPath>
<clipPath id="clip7">
  <path d="M 318 197 L 329 197 L 329 207.453125 L 318 207.453125 Z M 318 197 "/>
</clipPath>
<clipPath id="clip8">
  <path d="M 291 197 L 301 197 L 301 207.453125 L 291 207.453125 Z M 291 197 "/>
</clipPath>
</defs>
<g id="surface1">
<g clip-path="url(#clip1)" clip-rule="nonzero">
<path style=" stroke:none;fill-rule:nonzero;fill:rgb(100%,100%,100%);fill-opacity:1;" d="M 28.773438 315.917969 C 18.367188 315.917969 11.726562 320.070312 11.726562 322.929688 L 11.726562 324.484375 C 11.726562 327.34375 18.367188 331.5 28.773438 331.5 L 421.148438 331.5 C 431.554688 331.5 438.195312 327.34375 438.195312 324.484375 L 438.195312 322.929688 C 438.195312 320.070312 431.554688 315.917969 421.148438 315.917969 Z M 421.148438 337.542969 L 28.773438 337.542969 C 15.609375 337.542969 5.683594 331.929688 5.683594 324.484375 L 5.683594 322.929688 C 5.683594 315.488281 15.609375 309.875 28.773438 309.875 L 421.148438 309.875 C 434.3125 309.875 444.238281 315.488281 444.238281 322.929688 L 444.238281 324.484375 C 444.238281 331.929688 434.3125 337.542969 421.148438 337.542969 "/>
</g>
<path style=" stroke:none;fill-rule:nonzero;fill:rgb(100%,100%,100%);fill-opacity:1;" d="M 268.820312 323.707031 C 268.820312 325.5625 267.625 327.0625 266.15625 327.0625 L 173.511719 327.0625 C 172.039062 327.0625 170.851562 325.5625 170.851562 323.707031 C 170.851562 321.855469 172.039062 320.351562 173.511719 320.351562 L 266.15625 320.351562 C 267.625 320.351562 268.820312 321.855469 268.820312 323.707031 "/>
<path style=" stroke:none;fill-rule:nonzero;fill:rgb(100%,100%,100%);fill-opacity:1;" d="M 22.535156 313.398438 L 62.40625 304.203125 L 383.925781 304.203125 L 427.414062 313.398438 L 22.535156 313.398438 "/>
<g clip-path="url(#clip2)" clip-rule="nonzero">
<path style=" stroke:none;fill-rule:nonzero;fill:rgb(100%,100%,100%);fill-opacity:1;" d="M 390.757812 279.734375 L 50.511719 279.734375 L 50.511719 57.710938 L 390.757812 57.710938 Z M 221.914062 42.890625 L 227.347656 42.890625 C 230.464844 42.890625 232.992188 45.417969 232.992188 48.535156 C 232.992188 51.652344 230.464844 54.179688 227.347656 54.179688 L 221.914062 54.179688 C 218.792969 54.179688 216.265625 51.652344 216.265625 48.535156 C 216.265625 45.417969 218.792969 42.890625 221.914062 42.890625 Z M 382.742188 37.527344 L 59.976562 37.527344 C 49.972656 37.527344 41.867188 46.515625 41.867188 57.597656 L 41.867188 287.058594 C 41.867188 298.144531 49.972656 307.128906 59.976562 307.128906 L 382.742188 307.128906 C 392.742188 307.128906 400.851562 298.144531 400.851562 287.058594 L 400.851562 57.597656 C 400.851562 46.515625 392.742188 37.527344 382.742188 37.527344 "/>
</g>
<path style=" stroke:none;fill-rule:nonzero;fill:rgb(100%,100%,100%);fill-opacity:1;" d="M 228.890625 48.796875 C 228.890625 50.382812 227.601562 51.671875 226.011719 51.671875 L 223.246094 51.671875 C 221.660156 51.671875 220.371094 50.382812 220.371094 48.796875 C 220.371094 47.207031 221.660156 45.921875 223.246094 45.921875 L 226.011719 45.921875 C 227.601562 45.921875 228.890625 47.207031 228.890625 48.796875 "/>
<g clip-path="url(#clip3)" clip-rule="nonzero">
<path style=" stroke:none;fill-rule:evenodd;fill:rgb(0%,30.198669%,25.099182%);fill-opacity:1;" d="M 93.132812 155.019531 L 93.132812 188.023438 C 89.625 188.6875 87.78125 188.949219 84.984375 188.949219 C 76.613281 188.941406 72.253906 185.203125 72.253906 178.027344 C 72.253906 171.113281 76.875 166.628906 84.039062 166.628906 C 85.152344 166.628906 86 166.714844 87.023438 166.976562 L 87.023438 155.019531 Z M 87.023438 172.433594 C 86.21875 172.171875 85.558594 172.082031 84.710938 172.082031 C 81.246094 172.082031 79.242188 174.195312 79.242188 177.898438 C 79.242188 181.503906 81.15625 183.492188 84.667969 183.492188 C 85.425781 183.492188 86.042969 183.449219 87.023438 183.316406 Z M 87.023438 172.433594 "/>
</g>
<path style=" stroke:none;fill-rule:evenodd;fill:rgb(0%,30.198669%,25.099182%);fill-opacity:1;" d="M 103.574219 165.578125 L 103.574219 182.851562 C 103.574219 188.269531 103.167969 191.265625 101.976562 193.511719 C 100.863281 195.667969 99.398438 197.03125 96.375 198.535156 L 90.015625 195.535156 C 93.039062 194.128906 94.507812 192.886719 95.441406 190.988281 C 96.417969 189.050781 96.730469 186.410156 96.730469 180.503906 L 96.730469 165.574219 L 103.574219 165.574219 Z M 103.574219 165.578125 "/>
<path style=" stroke:none;fill-rule:evenodd;fill:rgb(0%,30.198669%,25.099182%);fill-opacity:1;" d="M 108.097656 167.746094 C 111.0625 166.304688 113.902344 165.671875 116.992188 165.671875 C 120.441406 165.671875 122.707031 166.617188 123.707031 168.472656 C 124.269531 169.507812 124.453125 170.855469 124.453125 173.746094 L 124.453125 187.855469 C 121.445312 188.304688 117.652344 188.625 114.867188 188.625 C 109.238281 188.625 106.714844 186.59375 106.714844 182.085938 C 106.714844 177.210938 110.070312 174.960938 118.304688 174.242188 L 118.304688 172.714844 C 118.304688 171.453125 117.691406 170.996094 116 170.996094 C 113.519531 170.996094 110.726562 171.722656 108.105469 173.117188 Z M 118.609375 178.789062 C 114.167969 179.234375 112.722656 179.960938 112.722656 181.765625 C 112.722656 183.117188 113.554688 183.753906 115.386719 183.753906 C 116.386719 183.753906 117.304688 183.664062 118.609375 183.4375 Z M 118.609375 178.789062 "/>
<path style=" stroke:none;fill-rule:evenodd;fill:rgb(0%,30.198669%,25.099182%);fill-opacity:1;" d="M 128.152344 167.269531 C 132.121094 166.167969 135.386719 165.667969 138.699219 165.667969 C 142.140625 165.667969 144.632812 166.496094 146.109375 168.09375 C 147.496094 169.605469 147.941406 171.257812 147.941406 174.785156 L 147.941406 188.625 L 141.222656 188.625 L 141.222656 175.066406 C 141.222656 172.355469 140.347656 171.351562 137.957031 171.351562 C 137.039062 171.351562 136.210938 171.441406 134.859375 171.859375 L 134.859375 188.628906 L 128.152344 188.628906 Z M 128.152344 167.269531 "/>
<path style=" stroke:none;fill-rule:evenodd;fill:rgb(0%,30.198669%,25.099182%);fill-opacity:1;" d="M 151.011719 191.574219 C 153.410156 192.84375 155.8125 193.425781 158.351562 193.425781 C 162.84375 193.425781 164.757812 192.191406 164.757812 187.746094 L 164.757812 187.613281 C 163.425781 188.285156 162.082031 188.566406 160.308594 188.566406 C 154.300781 188.566406 150.550781 184.53125 150.550781 178.136719 C 150.550781 170.195312 156.136719 165.707031 166.140625 165.707031 C 169.082031 165.707031 171.796875 166.023438 175.085938 166.707031 L 172.738281 171.742188 C 170.914062 171.382812 172.589844 171.6875 171.214844 171.554688 L 171.214844 172.285156 L 171.304688 175.234375 L 171.347656 179.046875 C 171.394531 180 171.394531 180.953125 171.4375 181.90625 L 171.4375 183.8125 C 171.4375 189.800781 170.941406 191.984375 169.476562 194.304688 C 167.34375 197.703125 163.648438 199.386719 158.394531 199.386719 C 155.722656 199.386719 153.410156 198.980469 151.011719 198.023438 Z M 164.625 171.335938 L 163.90625 171.335938 C 162.574219 171.289062 161.015625 171.648438 159.945312 172.332031 C 158.304688 173.285156 157.457031 175.015625 157.457031 177.460938 C 157.457031 180.949219 159.148438 182.945312 162.175781 182.945312 C 163.109375 182.945312 163.867188 182.765625 164.75 182.496094 L 164.75 180.085938 C 164.75 179.269531 164.707031 178.359375 164.707031 177.40625 L 164.664062 174.1875 L 164.617188 171.875 L 164.617188 171.335938 Z M 164.625 171.335938 "/>
<g clip-path="url(#clip4)" clip-rule="nonzero">
<path style=" stroke:none;fill-rule:evenodd;fill:rgb(0%,30.198669%,25.099182%);fill-opacity:1;" d="M 185.957031 165.578125 C 193.140625 165.578125 197.527344 169.910156 197.527344 176.925781 C 197.527344 184.121094 192.957031 188.628906 185.667969 188.628906 C 178.476562 188.628906 174.039062 184.296875 174.039062 177.328125 C 174.050781 170.089844 178.625 165.578125 185.957031 165.578125 Z M 185.808594 183.082031 C 188.566406 183.082031 190.195312 180.894531 190.195312 177.09375 C 190.195312 173.339844 188.609375 171.105469 185.855469 171.105469 C 183 171.105469 181.371094 173.292969 181.371094 177.09375 C 181.375 180.894531 183.011719 183.082031 185.808594 183.082031 Z M 185.808594 183.082031 "/>
</g>
<g clip-path="url(#clip5)" clip-rule="nonzero">
<path style=" stroke:none;fill-rule:nonzero;fill:rgb(0%,0%,0%);fill-opacity:1;" d="M 231.484375 159.566406 C 231.492188 159.566406 231.5 159.566406 231.507812 159.566406 C 232.300781 159.570312 233.019531 159.894531 233.542969 160.417969 C 234.066406 160.941406 234.390625 161.667969 234.394531 162.464844 L 234.394531 172.613281 L 244.542969 172.613281 C 245.339844 172.613281 246.0625 172.9375 246.589844 173.464844 C 247.113281 173.988281 247.4375 174.707031 247.441406 175.5 C 247.441406 175.507812 247.441406 175.515625 247.441406 175.527344 C 247.4375 176.316406 247.113281 177.039062 246.589844 177.558594 C 246.066406 178.085938 245.339844 178.410156 244.542969 178.410156 L 234.394531 178.410156 L 234.394531 188.558594 C 234.394531 189.355469 234.070312 190.082031 233.542969 190.605469 C 233.019531 191.128906 232.300781 191.453125 231.507812 191.457031 C 231.496094 191.457031 231.488281 191.457031 231.480469 191.457031 C 230.6875 191.453125 229.96875 191.128906 229.445312 190.605469 C 228.921875 190.082031 228.597656 189.355469 228.597656 188.558594 L 228.597656 178.410156 L 218.449219 178.410156 C 217.652344 178.410156 216.925781 178.085938 216.402344 177.558594 C 215.878906 177.035156 215.554688 176.316406 215.550781 175.523438 C 215.550781 175.515625 215.550781 175.507812 215.550781 175.496094 C 215.554688 174.707031 215.878906 173.984375 216.402344 173.464844 C 216.925781 172.9375 217.648438 172.613281 218.449219 172.613281 L 228.597656 172.613281 L 228.597656 162.464844 C 228.597656 161.667969 228.921875 160.941406 229.445312 160.417969 C 229.96875 159.894531 230.691406 159.570312 231.484375 159.566406 "/>
</g>
<g clip-path="url(#clip6)" clip-rule="nonzero">
<path style=" stroke:none;fill-rule:nonzero;fill:rgb(0%,0%,0%);fill-opacity:1;" d="M 333.539062 155.351562 L 285.519531 155.351562 C 283.855469 147.511719 279.316406 147.011719 278.925781 146.957031 L 275.4375 146.957031 C 274.882812 145.621094 273.609375 144.453125 272.058594 144.453125 C 270.066406 144.453125 268.460938 146.066406 268.460938 148.070312 C 268.460938 150.070312 270.066406 151.738281 272.058594 151.738281 C 273.609375 151.738281 274.882812 150.515625 275.4375 149.179688 L 278.707031 149.179688 C 278.816406 149.179688 281.863281 150.125 283.027344 156.519531 C 284.519531 165.027344 288.398438 186.378906 288.398438 186.378906 C 288.398438 188.769531 289.839844 193.105469 295.15625 193.105469 L 315.648438 193.105469 L 314.816406 190.9375 L 295.101562 190.9375 C 292.828125 190.9375 291.832031 189.269531 291.390625 188.101562 C 294.988281 187.878906 304.847656 187.214844 313.542969 186.601562 L 313.597656 186.601562 L 309.5 173.257812 C 309.113281 171.976562 309.5 170.589844 310.496094 169.699219 C 311.496094 168.808594 313.046875 168.640625 314.207031 169.253906 L 333.816406 179.207031 C 334.535156 179.539062 335.035156 180.152344 335.367188 180.875 L 336.640625 180.539062 C 337.082031 179.59375 337.195312 178.929688 337.195312 178.816406 L 339.242188 162.023438 C 339.742188 158.300781 337.195312 155.351562 333.539062 155.351562 Z M 303.351562 167.695312 C 303.464844 167.417969 303.796875 167.25 304.074219 167.363281 L 307.894531 168.753906 C 308.171875 168.863281 308.335938 169.199219 308.226562 169.476562 C 308.117188 169.699219 307.894531 169.863281 307.671875 169.863281 C 307.617188 169.863281 307.5625 169.863281 307.449219 169.808594 L 303.628906 168.417969 C 303.40625 168.308594 303.242188 167.976562 303.351562 167.695312 Z M 307.394531 174.203125 L 303.738281 175.925781 C 303.683594 175.980469 303.574219 175.980469 303.519531 175.980469 C 303.296875 175.980469 303.074219 175.871094 303.019531 175.648438 C 302.910156 175.371094 303.019531 175.035156 303.296875 174.871094 L 306.953125 173.144531 C 307.230469 173.035156 307.5625 173.144531 307.726562 173.421875 C 307.839844 173.703125 307.726562 174.089844 307.394531 174.203125 Z M 310.054688 176.59375 C 310.332031 176.703125 310.496094 177.039062 310.386719 177.316406 L 309 181.207031 C 308.890625 181.429688 308.726562 181.597656 308.449219 181.597656 C 308.394531 181.597656 308.335938 181.597656 308.28125 181.542969 C 308.003906 181.429688 307.839844 181.097656 307.949219 180.820312 L 309.335938 176.925781 C 309.445312 176.648438 309.777344 176.480469 310.054688 176.59375 Z M 311.382812 167.085938 C 311.328125 167.140625 311.21875 167.140625 311.160156 167.140625 C 310.941406 167.140625 310.71875 167.03125 310.664062 166.808594 L 308.890625 163.082031 C 308.78125 162.804688 308.890625 162.46875 309.167969 162.304688 C 309.445312 162.191406 309.777344 162.304688 309.945312 162.582031 L 311.660156 166.304688 C 311.769531 166.585938 311.660156 166.917969 311.382812 167.085938 Z M 317.363281 163.414062 L 315.980469 167.308594 C 315.871094 167.53125 315.703125 167.695312 315.425781 167.695312 C 315.371094 167.695312 315.316406 167.695312 315.207031 167.640625 C 314.929688 167.53125 314.761719 167.195312 314.871094 166.917969 L 316.257812 163.027344 C 316.367188 162.746094 316.699219 162.582031 316.976562 162.691406 C 317.363281 162.746094 317.476562 163.082031 317.363281 163.414062 Z M 322.792969 169.085938 L 319.136719 170.808594 C 319.027344 170.867188 318.972656 170.867188 318.859375 170.867188 C 318.640625 170.867188 318.417969 170.753906 318.363281 170.53125 C 318.25 170.253906 318.363281 169.921875 318.640625 169.753906 L 322.292969 168.03125 C 322.570312 167.917969 322.902344 168.03125 323.070312 168.308594 C 323.234375 168.585938 323.070312 168.917969 322.792969 169.085938 Z M 322.792969 169.085938 "/>
</g>
<path style=" stroke:none;fill-rule:nonzero;fill:rgb(0%,0%,0%);fill-opacity:1;" d="M 328.109375 185.042969 L 332.761719 183.210938 C 333.207031 183.042969 333.484375 182.652344 333.484375 182.207031 C 333.484375 181.765625 333.261719 181.320312 332.875 181.097656 L 313.265625 171.144531 C 312.878906 170.921875 312.378906 170.976562 311.992188 171.3125 C 311.660156 171.589844 311.496094 172.089844 311.660156 172.535156 L 318.308594 194.050781 C 318.417969 194.496094 318.804688 194.832031 319.304688 194.886719 C 319.746094 194.941406 320.191406 194.664062 320.410156 194.273438 L 323.070312 189.160156 L 328.773438 196.777344 C 328.941406 197 329.21875 197.164062 329.550781 197.222656 C 329.605469 197.222656 329.660156 197.222656 329.714844 197.222656 C 329.9375 197.222656 330.214844 197.164062 330.4375 197 L 333.925781 194.273438 C 334.148438 194.109375 334.3125 193.828125 334.367188 193.496094 C 334.425781 193.164062 334.3125 192.882812 334.148438 192.605469 Z M 328.109375 185.042969 "/>
<g clip-path="url(#clip7)" clip-rule="nonzero">
<path style=" stroke:none;fill-rule:nonzero;fill:rgb(0%,0%,0%);fill-opacity:1;" d="M 323.402344 197.945312 C 320.800781 197.945312 318.640625 200.113281 318.640625 202.78125 C 318.640625 205.449219 320.800781 207.621094 323.402344 207.621094 C 326.003906 207.621094 328.164062 205.449219 328.164062 202.78125 C 328.164062 200.113281 326.003906 197.945312 323.402344 197.945312 Z M 323.402344 197.945312 "/>
</g>
<g clip-path="url(#clip8)" clip-rule="nonzero">
<path style=" stroke:none;fill-rule:nonzero;fill:rgb(0%,0%,0%);fill-opacity:1;" d="M 295.984375 197.945312 C 293.382812 197.945312 291.222656 200.113281 291.222656 202.78125 C 291.222656 205.449219 293.382812 207.621094 295.984375 207.621094 C 298.589844 207.621094 300.75 205.449219 300.75 202.78125 C 300.75 200.113281 298.589844 197.945312 295.984375 197.945312 Z M 295.984375 197.945312 "/>
</g>
</g>
</svg>
