<?xml version="1.0" encoding="UTF-8"?>
<svg xmlns="http://www.w3.org/2000/svg" xmlns:xlink="http://www.w3.org/1999/xlink" width="450pt" height="374.999991pt" viewBox="0 0 450 374.999991" version="1.2">
<defs>
<clipPath id="clip1">
  <path d="M 5.621094 309 L 444.371094 309 L 444.371094 337.5 L 5.621094 337.5 Z M 5.621094 309 "/>
</clipPath>
<clipPath id="clip2">
  <path d="M 41 37.5 L 401 37.5 L 401 308 L 41 308 Z M 41 37.5 "/>
</clipPath>
<clipPath id="clip3">
  <path d="M 160 108.441406 L 253 108.441406 L 253 207 L 160 207 Z M 160 108.441406 "/>
</clipPath>
<clipPath id="clip4">
  <path d="M 197 138 L 290 138 L 290 237.289062 L 197 237.289062 Z M 197 138 "/>
</clipPath>
</defs>
<g id="surface1">
<g clip-path="url(#clip1)" clip-rule="nonzero">
<path style=" stroke:none;fill-rule:nonzero;fill:rgb(100%,100%,100%);fill-opacity:1;" d="M 28.773438 315.917969 C 18.367188 315.917969 11.726562 320.070312 11.726562 322.929688 L 11.726562 324.484375 C 11.726562 327.34375 18.367188 331.5 28.773438 331.5 L 421.148438 331.5 C 431.554688 331.5 438.195312 327.34375 438.195312 324.484375 L 438.195312 322.929688 C 438.195312 320.070312 431.554688 315.917969 421.148438 315.917969 Z M 421.148438 337.542969 L 28.773438 337.542969 C 15.609375 337.542969 5.683594 331.929688 5.683594 324.484375 L 5.683594 322.929688 C 5.683594 315.488281 15.609375 309.875 28.773438 309.875 L 421.148438 309.875 C 434.3125 309.875 444.238281 315.488281 444.238281 322.929688 L 444.238281 324.484375 C 444.238281 331.929688 434.3125 337.542969 421.148438 337.542969 "/>
</g>
<path style=" stroke:none;fill-rule:nonzero;fill:rgb(100%,100%,100%);fill-opacity:1;" d="M 268.820312 323.707031 C 268.820312 325.5625 267.625 327.0625 266.15625 327.0625 L 173.511719 327.0625 C 172.039062 327.0625 170.851562 325.5625 170.851562 323.707031 C 170.851562 321.855469 172.039062 320.351562 173.511719 320.351562 L 266.15625 320.351562 C 267.625 320.351562 268.820312 321.855469 268.820312 323.707031 "/>
<path style=" stroke:none;fill-rule:nonzero;fill:rgb(100%,100%,100%);fill-opacity:1;" d="M 22.535156 313.398438 L 62.40625 304.203125 L 383.925781 304.203125 L 427.414062 313.398438 L 22.535156 313.398438 "/>
<g clip-path="url(#clip2)" clip-rule="nonzero">
<path style=" stroke:none;fill-rule:nonzero;fill:rgb(100%,100%,100%);fill-opacity:1;" d="M 390.757812 279.734375 L 50.511719 279.734375 L 50.511719 57.710938 L 390.757812 57.710938 Z M 221.914062 42.890625 L 227.347656 42.890625 C 230.464844 42.890625 232.992188 45.417969 232.992188 48.535156 C 232.992188 51.652344 230.464844 54.179688 227.347656 54.179688 L 221.914062 54.179688 C 218.792969 54.179688 216.265625 51.652344 216.265625 48.535156 C 216.265625 45.417969 218.792969 42.890625 221.914062 42.890625 Z M 382.742188 37.527344 L 59.976562 37.527344 C 49.972656 37.527344 41.867188 46.515625 41.867188 57.597656 L 41.867188 287.058594 C 41.867188 298.144531 49.972656 307.128906 59.976562 307.128906 L 382.742188 307.128906 C 392.742188 307.128906 400.851562 298.144531 400.851562 287.058594 L 400.851562 57.597656 C 400.851562 46.515625 392.742188 37.527344 382.742188 37.527344 "/>
</g>
<path style=" stroke:none;fill-rule:nonzero;fill:rgb(100%,100%,100%);fill-opacity:1;" d="M 228.890625 48.796875 C 228.890625 50.382812 227.601562 51.671875 226.011719 51.671875 L 223.246094 51.671875 C 221.660156 51.671875 220.371094 50.382812 220.371094 48.796875 C 220.371094 47.207031 221.660156 45.921875 223.246094 45.921875 L 226.011719 45.921875 C 227.601562 45.921875 228.890625 47.207031 228.890625 48.796875 "/>
<g clip-path="url(#clip3)" clip-rule="nonzero">
<path style=" stroke:none;fill-rule:nonzero;fill:rgb(0.779724%,46.669006%,74.119568%);fill-opacity:1;" d="M 226.804688 108.441406 C 221.511719 108.457031 217.84375 108.921875 213.40625 109.683594 C 200.304688 111.957031 197.917969 116.726562 197.917969 125.519531 L 197.917969 138.957031 L 228.558594 138.957031 L 228.558594 145.738281 L 181.941406 145.738281 C 172.96875 145.738281 165.113281 149.949219 162.625 160.042969 C 159.8125 171.628906 159.683594 178.886719 162.625 190.984375 C 164.855469 200.007812 169.765625 206.769531 178.746094 206.769531 L 191.109375 206.769531 L 191.109375 189.464844 C 191.109375 179.40625 200.257812 169.472656 210.734375 169.472656 L 235.371094 169.472656 C 243.964844 169.472656 252.398438 163.160156 252.398438 154.632812 L 252.398438 125.519531 C 252.398438 117.25 246.40625 111.0625 238.035156 109.675781 C 238.242188 109.65625 232.058594 108.417969 226.804688 108.441406 Z M 209.835938 122.003906 C 212.632812 122.003906 214.945312 124.296875 214.945312 127.09375 C 214.945312 129.921875 212.632812 132.175781 209.835938 132.175781 C 206.988281 132.175781 204.730469 129.921875 204.730469 127.09375 C 204.730469 124.308594 206.988281 122.003906 209.835938 122.003906 Z M 209.835938 122.003906 "/>
</g>
<g clip-path="url(#clip4)" clip-rule="nonzero">
<path style=" stroke:none;fill-rule:nonzero;fill:rgb(100%,75.689697%,2.749634%);fill-opacity:1;" d="M 223.507812 237.289062 C 228.800781 237.269531 232.472656 236.804688 236.910156 236.042969 C 250.011719 233.769531 252.398438 229 252.398438 220.207031 L 252.398438 206.769531 L 221.753906 206.769531 L 221.753906 199.988281 L 268.375 199.988281 C 277.351562 199.988281 285.203125 195.777344 287.695312 185.683594 C 290.507812 174.097656 290.632812 166.839844 287.695312 154.742188 C 285.460938 145.722656 280.546875 138.957031 271.570312 138.957031 L 259.203125 138.957031 L 259.203125 156.261719 C 259.203125 166.320312 250.058594 176.253906 239.578125 176.253906 L 214.941406 176.253906 C 206.351562 176.253906 197.917969 182.566406 197.917969 191.09375 L 197.917969 220.207031 C 197.917969 228.476562 203.90625 234.664062 212.277344 236.050781 C 212.070312 236.070312 218.257812 237.308594 223.507812 237.289062 Z M 240.480469 223.722656 C 237.683594 223.722656 235.371094 221.429688 235.371094 218.632812 C 235.371094 215.808594 237.683594 213.550781 240.480469 213.550781 C 243.328125 213.550781 245.585938 215.804688 245.585938 218.632812 C 245.585938 221.417969 243.328125 223.722656 240.480469 223.722656 Z M 240.480469 223.722656 "/>
</g>
</g>
</svg>
